<svg data-v-29081953="" xmlns="http://www.w3.org/2000/svg" viewBox="0 0 300 300"><!----><defs data-v-29081953=""><!----></defs><rect data-v-29081953="" fill="#E1F0F0" x="0" y="0" width="300px" height="300px" class="logo-background-square"></rect><defs data-v-29081953=""><!----></defs><g data-v-29081953="" id="d57d4197-23d1-4b30-ad7c-3a69c0cdb2f4" fill="#10312F" transform="matrix(4.071746113908505,0,0,4.071746113908505,129.21551977709032,106.55446865394669)"><path d="M4.16 4.33L1.60 4.33L1.60 12.78C1.60 13.84 0.92 14.51-0.41 14.79L0.44 17.01C2.64 16.56 4.16 15.16 4.16 12.88ZM14.63 4.33L12.07 4.33L12.07 9.72C12.07 10.66 11.58 11.32 10.49 11.33C9.39 11.35 8.90 10.66 8.90 9.72L8.90 4.33L6.34 4.33L6.34 9.90C6.34 12.29 8.20 13.73 10.49 13.73C12.77 13.73 14.63 12.29 14.63 9.90ZM23.19 8.82C23.95 8.46 24.39 7.88 24.39 6.95C24.39 5.36 22.85 4.36 21.31 4.36L16.95 4.36L16.95 13.32C17.81 13.51 19.71 13.73 20.99 13.73C23.20 13.73 24.83 12.47 24.83 10.94C24.83 9.61 24.04 9.12 23.19 8.82ZM19.51 6.62L20.81 6.62C21.41 6.62 21.90 6.90 21.90 7.40C21.90 7.89 21.41 8.13 20.81 8.13L19.51 8.13ZM20.81 11.47C20.52 11.47 19.89 11.43 19.51 11.31L19.51 9.84L20.71 9.84C21.45 9.84 22.12 9.99 22.12 10.54C22.12 11.14 21.55 11.47 20.81 11.47ZM30.57 6.62L32.12 6.62L32.12 4.36L26.47 4.36L26.47 6.62L28.01 6.62L28.01 11.27L26.47 11.27L26.47 13.52L32.12 13.52L32.12 11.27L30.57 11.27Z"></path></g><defs data-v-29081953=""><linearGradient data-v-29081953="" gradientTransform="rotate(25)" id="d1797410-6952-4106-957d-a0c82236e294" x1="0%" y1="0%" x2="100%" y2="0%"><stop data-v-29081953="" offset="0%" stop-color="#01648B" stop-opacity="1"></stop><stop data-v-29081953="" offset="100%" stop-color="#5BD0A4" stop-opacity="1"></stop></linearGradient></defs><g data-v-29081953="" id="61c17e67-c9b7-4b63-8df7-5185e1c6ff58" stroke="none" fill="url(#d1797410-6952-4106-957d-a0c82236e294)" transform="matrix(0.9057849467887393,0,0,0.9057849467887393,31.123307348705588,107.65455373762644)"><path d="M38.7 46.7c0 8 6.5 14.5 14.5 14.5s14.5-6.5 14.5-14.5-6.5-14.5-14.5-14.5-14.5 6.5-14.5 14.5z"></path><path d="M71.5 57.3c-.6 1.1-1.3 2.1-2.1 3.1-4 4.9-10 8-16.8 8-11.9 0-21.6-9.7-21.6-21.7 0-11.9 9.7-21.6 21.6-21.6 6.7 0 12.7 3.1 16.7 7.8.8.9 1.5 1.9 2.1 3l20.7-5.8c-1.5-3.5-3.4-6.7-5.6-9.6C78.6 10.5 66.4 4 52.6 4 29 4 9.8 23.1 9.8 46.7S29 89.5 52.6 89.5c17.7 0 33-10.8 39.5-26.2l-20.6-6z"></path></g><!----></svg>